# xmcd
#
# Track frame offsets: 
#        150
#        18797
#        34595
#        50345
#        66950
#        84967
#        101877
#        117992
#        135272
#        148072
#
# Disc length: 2154 seconds
#
# Revision: 2
# Processed by: cddbd v1.5.1PL0 Copyright (c) Steve Scherf et al.
# Submitted via: ExactAudioCopy v0.95a5
#
DISCID=7e08680a
DTITLE=Wooden Leg - Wooden Leg
DYEAR=1996
DGENRE=Rock
TTITLE0=Champaign
TTITLE1=Sweet Lies
TTITLE2=To the Bone
TTITLE3=Tuesday's Paper
TTITLE4=Out of My Yard
TTITLE5=Hard Luck
TTITLE6=Pretty Polly
TTITLE7=Nothing But Time
TTITLE8=I Got a Wife
TTITLE9=Feels Like a Rock
EXTD=
EXTT0=
EXTT1=
EXTT2=
EXTT3=
EXTT4=
EXTT5=
EXTT6=
EXTT7=
EXTT8=
EXTT9=
PLAYORDER=
